<!DOCTYPE svg PUBLIC "-//W3C//DTD SVG 1.1//EN" "http://www.w3.org/Graphics/SVG/1.1/DTD/svg11.dtd">
<!-- Uploaded to: SVG Repo, www.svgrepo.com, Transformed by: SVG Repo Mixer Tools -->
<svg fill="#002aff" version="1.1" id="Layer_1" xmlns="http://www.w3.org/2000/svg" xmlns:xlink="http://www.w3.org/1999/xlink" viewBox="0 0 512 512" xml:space="preserve" width="143px" height="143px" stroke="#002aff">
<g id="SVGRepo_bgCarrier" stroke-width="0"/>
<g id="SVGRepo_tracerCarrier" stroke-linecap="round" stroke-linejoin="round"/>
<g id="SVGRepo_iconCarrier"> <g> <g> <rect x="333.701" y="105.77" width="120.111" height="21.933"/> </g> </g> <g> <g> <rect x="130.758" y="105.77" width="120.111" height="21.933"/> </g> </g> <g> <g> <polygon points="281.322,12.421 281.322,75.321 281.322,158.153 281.322,221.054 303.256,221.054 303.256,158.153 303.256,75.321 303.256,12.421 "/> </g> </g> <g> <g> <rect x="130.758" y="12.421" width="120.111" height="62.901"/> </g> </g> <g> <g> <rect x="333.701" y="158.152" width="120.111" height="62.901"/> </g> </g> <g> <g> <rect x="130.758" y="158.152" width="120.111" height="62.901"/> </g> </g> <g> <g> <rect x="333.701" y="12.421" width="120.111" height="62.901"/> </g> </g> <g> <g> <polygon points="0,293.035 0,499.579 75.087,499.579 75.087,469.13 75.087,460.341 75.087,323.484 75.087,295.275 75.087,293.035 "/> </g> </g> <g> <g> <polygon points="500.704,341.585 374.009,376.405 266.07,350.08 273.284,320.499 373.552,344.952 373.781,344.889 373.781,305.786 233.603,270.684 105.536,290.551 105.536,293.035 105.536,321.365 105.536,426.286 105.536,456.926 179.547,448.624 322.948,488.88 512,384.683 "/> </g> </g> </g>
</svg>